<svg width="21" height="21" viewBox="0 0 21 21" fill="none" xmlns="http://www.w3.org/2000/svg">
<g clip-path="url(#clip0_5_2560)">
<path d="M8.99833 13.9486H12.3317C12.79 13.9486 13.165 13.5736 13.165 13.1153V8.94858H14.49C15.2317 8.94858 15.6067 8.04858 15.0817 7.52358L11.2567 3.69858C10.9317 3.37358 10.4067 3.37358 10.0817 3.69858L6.25667 7.52358C5.73167 8.04858 6.09833 8.94858 6.84 8.94858H8.165V13.1153C8.165 13.5736 8.54 13.9486 8.99833 13.9486ZM5.665 15.6153H15.665C16.1233 15.6153 16.4983 15.9903 16.4983 16.4486C16.4983 16.9069 16.1233 17.2819 15.665 17.2819H5.665C5.20667 17.2819 4.83167 16.9069 4.83167 16.4486C4.83167 15.9903 5.20667 15.6153 5.665 15.6153Z" fill="currentColor"/>
</g>
<defs>
<clipPath id="clip0_5_2560">
<rect width="20" height="20" fill="white" transform="translate(0.665039 0.615234)"/>
</clipPath>
</defs>
</svg>
